<?xml version="1.0" standalone="no"?>
<!DOCTYPE svg PUBLIC "-//W3C//DTD SVG 20010904//EN"
 "http://www.w3.org/TR/2001/REC-SVG-20010904/DTD/svg10.dtd">
<svg version="1.0" xmlns="http://www.w3.org/2000/svg"
 width="700.000000pt" height="907.000000pt" viewBox="0 0 700.000000 907.000000"
 preserveAspectRatio="xMidYMid meet">

<g transform="translate(0.000000,907.000000) scale(0.100000,-0.100000)"
fill="#000000" stroke="none">
<path d="M477 8593 c-4 -3 -7 -78 -7 -165 l0 -158 165 0 165 0 0 164 0 165
-158 0 c-88 1 -162 -2 -165 -6z m244 -34 c19 -31 11 -39 -33 -33 -50 8 -63 17
-55 38 8 19 75 16 88 -5z m-186 -247 c0 -18 -20 -15 -23 4 -3 10 1 15 10 12 7
-3 13 -10 13 -16z"/>
<path d="M873 8592 c-23 -3 -23 -5 -23 -163 l0 -159 165 0 165 0 0 165 c0 91
-4 165 -8 165 -14 0 -32 -23 -32 -41 0 -10 -5 -21 -10 -24 -11 -7 -9 23 3 43
5 8 2 12 -10 13 -41 3 -230 4 -250 1z m223 -47 c5 -34 17 -53 31 -48 13 5 14
-1 8 -35 -4 -25 -2 -54 6 -75 7 -20 9 -49 5 -70 l-7 -37 -63 0 c-51 0 -66 4
-82 21 -13 15 -28 20 -51 17 -20 -3 -32 0 -30 6 2 6 26 13 52 16 48 5 50 6 58
43 11 44 7 51 -22 42 -26 -8 -28 -32 -3 -38 10 -3 6 -5 -11 -6 -24 -1 -27 2
-21 23 4 17 0 27 -13 35 -14 8 -14 11 -3 11 12 1 11 4 -4 15 -11 8 -16 21 -13
30 9 21 28 19 34 -5 3 -11 9 -17 14 -14 5 3 9 -2 9 -11 0 -13 6 -16 25 -11 14
4 34 2 45 -4 15 -8 20 -6 25 11 4 11 4 31 1 45 -4 13 -6 27 -5 30 0 4 -5 11
-13 16 -9 7 -8 8 7 6 11 -2 21 -8 21 -13z m-51 -46 c11 -17 2 -18 -19 -3 -17
12 -17 14 -4 14 9 0 20 -5 23 -11z"/>
<path d="M1230 8494 c0 -69 3 -95 12 -92 15 5 24 108 9 108 -7 0 -9 15 -6 40
3 23 1 40 -5 40 -6 0 -10 -39 -10 -96z"/>
<path d="M1340 8581 c0 -5 -9 -11 -21 -14 -12 -3 -18 -10 -15 -16 4 -5 2 -12
-4 -16 -6 -4 -8 -11 -4 -16 3 -5 9 -7 14 -4 12 7 40 -41 44 -77 2 -17 -1 -40
-7 -49 -6 -10 -7 -22 -3 -26 5 -4 11 -2 13 5 8 21 19 13 33 -23 9 -22 19 -34
27 -31 7 3 13 1 13 -4 0 -18 43 -11 77 13 39 26 51 59 35 99 -6 15 -6 26 -1
22 18 -11 8 37 -12 57 -20 20 -22 20 -40 3 -25 -23 -24 -9 2 28 21 28 21 30 3
43 -19 15 -44 20 -44 9 0 -3 7 -13 16 -22 16 -15 15 -17 -15 -24 -17 -5 -31
-13 -31 -18 0 -6 -7 -10 -15 -10 -8 0 -15 -6 -15 -12 0 -7 -7 0 -15 15 -13 25
-13 31 1 53 16 23 16 24 -10 24 -14 0 -26 -4 -26 -9z m144 -147 c33 -33 9 -94
-36 -94 -28 0 -58 28 -58 53 0 48 61 74 94 41z"/>
<path d="M1442 8380 c0 -14 2 -19 5 -12 2 6 2 18 0 25 -3 6 -5 1 -5 -13z"/>
<path d="M1857 8403 c-4 -3 -7 -17 -7 -31 0 -15 -7 -26 -20 -29 -22 -6 -27
-29 -8 -35 8 -3 9 -15 1 -46 -10 -39 -9 -43 15 -62 l25 -20 -28 -30 c-23 -24
-26 -33 -16 -43 10 -9 18 -5 39 21 26 31 28 32 44 15 15 -14 20 -15 30 -4 11
10 9 16 -8 30 -21 17 -21 20 -8 71 21 81 19 100 -11 100 -22 0 -25 4 -25 35 0
33 -8 43 -23 28z m43 -104 c0 -28 -24 -89 -34 -86 -27 9 -10 97 19 97 8 0 15
-5 15 -11z"/>
<path d="M6494 8393 c-5 -19 -14 -23 -45 -23 -41 0 -53 -18 -19 -27 11 -3 20
-9 20 -13 0 -4 -9 -15 -20 -25 -11 -10 -20 -24 -20 -32 0 -12 14 -13 80 -7 56
4 84 3 94 -5 24 -20 31 8 9 37 -22 30 -57 43 -47 19 4 -11 -5 -17 -36 -22 -50
-8 -54 -5 -34 23 13 18 25 22 75 22 46 0 59 3 59 15 0 11 -11 15 -39 15 -29 0
-43 6 -54 23 l-16 22 -7 -22z"/>
<path d="M2270 8381 c0 -17 -8 -20 -50 -23 -67 -4 -69 -22 -2 -26 47 -3 52 -5
52 -27 0 -22 -4 -24 -62 -27 -78 -4 -95 -28 -19 -28 30 0 51 -4 51 -11 0 -13
-57 -71 -85 -87 -16 -8 -17 -13 -8 -23 17 -17 55 10 91 63 l27 42 3 -67 c3
-58 5 -67 22 -67 17 0 19 9 22 67 l3 67 27 -42 c36 -53 74 -80 91 -63 9 10 8
15 -8 23 -28 16 -85 74 -85 87 0 7 21 11 51 11 76 0 59 24 -19 28 -58 3 -62 4
-62 27 0 24 3 25 55 25 42 0 55 3 55 15 0 12 -13 15 -55 15 -48 0 -55 2 -55
20 0 13 -7 20 -20 20 -13 0 -20 -7 -20 -19z"/>
<path d="M2620 8385 c0 -10 -15 -15 -57 -17 -78 -4 -83 -26 -6 -30 l58 -3 3
-37 c3 -35 1 -38 -23 -38 -15 0 -23 4 -20 10 9 14 -13 50 -30 50 -19 0 -19
-10 1 -38 15 -21 14 -22 -20 -22 -25 0 -36 -4 -36 -15 0 -11 12 -15 50 -15 62
0 59 -16 -11 -62 -27 -17 -48 -36 -46 -42 8 -24 30 -14 82 38 l55 55 0 -60 c0
-46 3 -59 15 -59 12 0 15 13 15 59 l0 60 55 -56 c46 -45 58 -53 70 -43 13 11
8 18 -32 46 -72 51 -75 64 -13 64 38 0 50 4 50 15 0 10 -11 15 -35 15 l-36 0
16 30 c9 17 11 30 5 30 -5 0 -10 5 -10 10 0 6 12 10 26 10 16 0 24 5 22 13 -3
7 -27 13 -61 15 -42 2 -57 7 -57 17 0 8 -7 15 -15 15 -8 0 -15 -7 -15 -15z
m90 -50 c0 -3 -7 -21 -14 -40 -21 -49 -46 -46 -46 5 0 38 2 40 30 40 17 0 30
-2 30 -5z"/>
<path d="M6100 8385 c0 -12 -13 -15 -60 -15 -47 0 -60 -3 -60 -15 0 -11 11
-15 40 -15 22 0 40 -4 40 -9 0 -5 -18 -25 -41 -45 -23 -19 -38 -39 -34 -45 10
-17 18 -14 59 24 28 26 36 39 31 55 -6 18 -2 20 45 20 40 0 51 -3 47 -14 -8
-19 80 -103 94 -89 7 7 -2 21 -30 49 -23 21 -41 42 -41 46 0 4 18 8 40 8 29 0
40 4 40 15 0 12 -14 15 -65 15 -49 0 -67 4 -71 15 -4 8 -12 15 -20 15 -8 0
-14 -7 -14 -15z"/>
<path d="M6334 8389 c-6 -11 31 -48 49 -49 14 0 7 27 -11 43 -22 20 -28 21
-38 6z"/>
<path d="M1950 8375 c0 -11 12 -15 50 -15 54 0 61 -7 30 -35 -11 -10 -20 -26
-20 -36 0 -13 -9 -19 -32 -21 -46 -4 -49 -28 -4 -28 l36 0 0 -55 c0 -52 -1
-55 -25 -55 -16 0 -25 -6 -25 -16 0 -12 9 -14 38 -12 l37 3 5 65 5 65 33 3
c42 4 37 26 -6 30 -40 4 -40 13 -1 62 17 21 28 43 24 49 -3 6 -37 11 -76 11
-55 0 -69 -3 -69 -15z"/>
<path d="M1230 8353 c0 -18 4 -33 9 -33 17 0 18 14 5 40 l-14 25 0 -32z"/>
<path d="M3077 8373 c-4 -3 -7 -60 -7 -125 0 -111 1 -118 20 -118 19 0 20 7
20 125 0 98 -3 125 -13 125 -8 0 -17 -3 -20 -7z"/>
<path d="M4387 8373 c-4 -3 -7 -60 -7 -125 0 -111 1 -118 20 -118 19 0 20 7
20 125 0 98 -3 125 -13 125 -8 0 -17 -3 -20 -7z"/>
<path d="M5867 8373 c-4 -3 -7 -23 -7 -44 0 -37 0 -37 -29 -26 -60 22 -109
-29 -97 -102 10 -61 56 -88 107 -61 13 7 19 7 19 0 0 -5 9 -10 20 -10 19 0 20
7 20 125 0 97 -3 125 -13 125 -8 0 -17 -3 -20 -7z m-23 -109 c31 -31 11 -104
-29 -104 -17 0 -45 38 -45 62 0 19 33 58 49 58 5 0 17 -7 25 -16z"/>
<path d="M4183 8363 c-10 -3 -13 -37 -13 -119 0 -106 1 -114 19 -114 16 0 20
8 23 38 3 33 6 37 33 40 61 5 76 13 89 43 15 36 10 72 -13 92 -16 14 -115 28
-138 20z m105 -45 c7 -7 12 -21 12 -33 0 -30 -19 -45 -57 -45 -32 0 -33 2 -33
38 0 21 3 42 7 45 11 11 58 8 71 -5z"/>
<path d="M2880 8245 l0 -115 75 0 c60 0 75 3 75 15 0 11 -11 15 -39 15 -57 0
-71 8 -71 41 0 28 2 29 50 29 43 0 50 3 50 20 0 17 -7 20 -50 20 -49 0 -50 1
-50 30 0 30 1 30 55 30 42 0 55 3 55 15 0 12 -15 15 -75 15 l-75 0 0 -115z"/>
<path d="M3550 8330 c0 -11 -7 -20 -15 -20 -8 0 -15 -6 -15 -14 0 -8 7 -16 15
-20 11 -4 15 -21 15 -64 0 -63 11 -82 47 -82 26 0 32 25 8 34 -11 4 -15 21
-15 61 0 42 3 55 15 55 8 0 15 7 15 15 0 8 -7 15 -15 15 -8 0 -15 9 -15 20 0
13 -7 20 -20 20 -13 0 -20 -7 -20 -20z"/>
<path d="M6332 8311 c-9 -5 -5 -14 13 -31 17 -16 29 -20 35 -14 14 14 -31 56
-48 45z"/>
<path d="M3172 8287 c-30 -31 -31 -108 -2 -137 27 -27 90 -27 115 0 23 26 12
37 -19 20 -33 -17 -76 -6 -76 20 0 18 7 20 60 20 66 0 72 8 45 59 -24 48 -87
57 -123 18z m88 -22 c17 -20 4 -35 -30 -35 -16 0 -32 5 -35 10 -9 15 13 40 35
40 10 0 23 -7 30 -15z"/>
<path d="M3365 8285 c-56 -55 -18 -155 60 -155 34 0 75 27 75 50 0 15 -26 12
-40 -5 -7 -8 -23 -15 -36 -15 -42 0 -60 72 -26 103 23 21 36 21 52 2 14 -17
50 -21 50 -5 0 5 -10 18 -22 30 -31 28 -83 26 -113 -5z"/>
<path d="M3660 8220 c0 -73 3 -90 15 -90 10 0 15 10 16 28 2 92 10 112 48 115
27 2 29 37 2 37 -11 0 -23 -5 -27 -11 -4 -8 -9 -8 -17 0 -29 29 -37 11 -37
-79z"/>
<path d="M3795 8285 c-32 -31 -34 -91 -4 -129 24 -30 81 -36 116 -11 43 30 38
131 -8 155 -32 18 -79 11 -104 -15z m95 -38 c13 -24 13 -30 0 -54 -9 -16 -24
-30 -35 -32 -40 -7 -62 71 -29 104 22 22 45 15 64 -18z"/>
<path d="M3977 8303 c-4 -3 -7 -44 -7 -90 0 -76 2 -83 20 -83 18 0 20 7 20 59
0 41 5 65 16 75 38 39 64 10 64 -71 0 -57 2 -63 21 -63 20 0 21 4 17 76 -3 60
-7 79 -23 90 -25 19 -54 18 -77 -3 -17 -15 -18 -15 -18 0 0 17 -21 23 -33 10z"/>
<path d="M4480 8288 c-27 -26 -11 -37 25 -18 31 16 60 9 60 -15 0 -16 -9 -21
-40 -25 -22 -3 -46 -9 -52 -13 -16 -10 -17 -59 -1 -75 15 -15 53 -16 79 -2 13
7 19 7 19 0 0 -5 9 -10 20 -10 18 0 20 7 20 70 0 57 -4 74 -20 90 -27 27 -80
26 -110 -2z m90 -91 c0 -20 -22 -37 -47 -37 -16 0 -23 6 -23 19 0 11 6 22 13
24 24 10 57 7 57 -6z"/>
<path d="M4630 8307 c0 -2 13 -43 30 -91 29 -87 30 -116 4 -116 -8 0 -14 -7
-14 -15 0 -21 43 -19 64 3 16 19 76 183 76 210 0 7 -7 12 -16 10 -10 -2 -24
-29 -38 -73 l-23 -70 -22 73 c-17 57 -26 72 -41 72 -11 0 -20 -1 -20 -3z"/>
<path d="M4835 8285 c-66 -65 6 -177 86 -135 20 11 25 -2 13 -34 -7 -18 -59
-22 -69 -6 -7 12 -45 13 -45 2 0 -41 105 -57 140 -22 17 17 20 33 20 120 0 92
-2 100 -19 100 -11 0 -21 -6 -24 -12 -4 -10 -7 -10 -18 0 -21 19 -58 14 -84
-13z m87 -22 c32 -29 14 -93 -27 -93 -20 0 -45 29 -45 52 0 23 26 58 43 58 6
0 19 -7 29 -17z"/>
<path d="M5027 8303 c-4 -3 -7 -44 -7 -90 0 -76 2 -83 20 -83 18 0 20 7 20 55
0 57 22 95 55 95 8 0 15 7 15 15 0 18 -31 20 -49 3 -11 -10 -14 -10 -18 0 -5
13 -25 16 -36 5z"/>
<path d="M5175 8285 c-34 -33 -35 -102 -2 -133 25 -24 75 -29 107 -12 23 12
40 67 33 104 -12 61 -94 86 -138 41z m93 -38 c11 -22 11 -32 0 -54 -26 -55
-78 -37 -78 28 0 61 53 79 78 26z"/>
<path d="M5350 8237 c0 -59 4 -77 18 -90 22 -20 63 -22 80 -5 9 9 12 9 12 0 0
-7 9 -12 20 -12 19 0 20 7 20 91 0 81 -2 90 -17 87 -14 -2 -19 -17 -23 -67 -5
-67 -21 -90 -54 -78 -13 5 -16 21 -16 77 0 63 -2 70 -20 70 -18 0 -20 -7 -20
-73z"/>
<path d="M5550 8220 c0 -73 3 -90 15 -90 11 0 15 13 15 54 0 66 27 108 57 90
14 -9 19 -26 21 -78 3 -58 5 -66 22 -66 18 0 20 7 20 73 0 59 -4 77 -18 90
-22 20 -63 22 -81 5 -11 -10 -14 -10 -18 0 -3 6 -11 12 -19 12 -11 0 -14 -19
-14 -90z"/>
<path d="M1308 8273 c45 -2 119 -2 165 0 45 1 8 3 -83 3 -91 0 -128 -2 -82 -3z"/>
<path d="M6155 8234 l-29 -37 -26 31 c-27 33 -50 42 -50 20 0 -7 12 -24 26
-39 l27 -28 -34 -20 c-18 -11 -46 -23 -61 -26 -15 -4 -28 -11 -28 -16 0 -23
35 -20 89 8 l57 30 58 -30 c52 -26 86 -30 86 -9 0 5 -25 19 -55 31 -30 13 -55
27 -55 32 0 6 10 23 22 39 15 21 19 33 11 41 -7 7 -19 -2 -38 -27z"/>
<path d="M6425 8213 c-3 -21 -12 -51 -20 -66 -15 -29 -12 -52 6 -42 16 10 36
58 44 103 5 34 4 42 -9 42 -10 0 -17 -13 -21 -37z"/>
<path d="M6480 8175 c0 -60 3 -75 15 -75 12 0 15 15 15 75 0 60 -3 75 -15 75
-12 0 -15 -15 -15 -75z"/>
<path d="M6547 8243 c-9 -8 -9 -106 -1 -127 4 -10 18 -16 35 -16 38 0 59 44
34 69 -13 14 -15 13 -15 -12 0 -17 -5 -27 -15 -27 -12 0 -15 13 -15 60 0 55
-6 70 -23 53z"/>
<path d="M6355 8194 c-20 -46 -24 -82 -10 -85 16 -2 50 100 37 113 -8 8 -15 0
-27 -28z"/>
<path d="M470 8145 c0 -41 3 -75 8 -75 4 0 18 7 31 16 12 9 39 19 59 21 50 7
170 57 207 88 l30 24 -29 1 c-16 0 -57 -11 -91 -25 -34 -13 -80 -27 -103 -31
-40 -6 -43 -5 -53 25 -8 23 -17 31 -35 31 -23 0 -24 -2 -24 -75z"/>
<path d="M1230 8055 l0 -165 165 0 165 0 0 165 0 165 -165 0 -165 0 0 -165z
m232 -37 c21 -23 28 -39 26 -62 l-3 -31 -86 -3 c-95 -3 -107 4 -89 54 6 14 8
29 5 34 -5 9 39 24 68 23 9 0 17 4 17 8 0 20 34 7 62 -23z"/>
<path d="M850 8175 c0 -30 3 -35 23 -35 13 0 28 -5 33 -10 8 -8 20 -7 40 1
l29 11 -25 12 c-14 6 -36 21 -48 34 -33 33 -52 29 -52 -13z"/>
<path d="M1102 8154 c-12 -8 -22 -25 -22 -36 0 -12 3 -19 6 -15 4 3 13 -1 22
-9 11 -11 12 -18 3 -27 -8 -8 -11 -7 -11 5 0 12 -7 16 -27 14 -16 -2 -57 -5
-93 -6 -62 -3 -63 -3 -20 -9 42 -6 45 -8 48 -38 2 -23 -1 -32 -15 -36 -10 -3
10 -5 44 -6 58 -1 61 -2 55 -23 -11 -44 -45 -61 -70 -36 -9 9 -12 9 -12 -2 0
-7 -3 -10 -7 -6 -4 4 -8 15 -8 24 0 11 -10 18 -25 20 -29 4 -80 49 -80 71 0
11 -3 12 -11 4 -9 -9 -9 -19 1 -42 17 -42 7 -63 -13 -26 l-16 30 -1 -57 0 -58
165 0 165 0 -2 70 c-1 39 -5 70 -10 70 -4 0 -17 -9 -29 -21 -25 -25 -32 -20
-24 14 4 16 19 31 36 39 26 12 29 18 29 60 0 46 -1 48 -28 48 -15 0 -38 -7
-50 -16z"/>
<path d="M735 8120 c-69 -33 -125 -52 -207 -70 l-58 -13 0 -74 0 -73 165 0
165 0 0 130 c0 72 -1 130 -2 129 -2 0 -30 -14 -63 -29z m-93 -100 c-5 -36 -13
-38 -28 -5 -12 24 -9 27 27 34 3 0 4 -12 1 -29z"/>
<path d="M1977 8004 c-3 -4 -2 -15 4 -26 13 -23 10 -27 -22 -30 -20 -3 -25 2
-27 25 -3 26 -6 27 -58 27 -52 0 -71 -11 -39 -24 22 -8 18 -36 -5 -36 -11 0
-20 -4 -20 -10 0 -5 6 -10 14 -10 23 0 31 -22 13 -35 -10 -7 -14 -20 -10 -33
3 -13 -2 -33 -11 -47 -19 -29 -12 -53 10 -34 12 9 14 5 14 -25 0 -37 15 -47
38 -24 10 10 17 10 32 0 11 -6 22 -12 25 -12 3 0 5 27 5 60 l0 60 -41 0 c-49
0 -50 23 -1 28 26 3 32 8 32 26 0 32 15 43 55 38 26 -3 35 -9 35 -23 0 -14 -7
-19 -25 -19 -16 0 -25 -6 -25 -15 0 -9 9 -15 25 -15 18 0 25 -5 25 -20 0 -16
-7 -20 -30 -20 -20 0 -30 -5 -30 -15 0 -10 10 -15 30 -15 28 0 30 -2 30 -41 0
-52 24 -49 28 4 3 31 7 36 30 39 35 4 35 22 0 26 -34 4 -41 42 -8 42 11 0 20
7 20 15 0 8 -9 15 -20 15 -13 0 -20 7 -20 20 0 15 7 20 25 20 16 0 25 6 25 15
0 8 -7 15 -15 15 -11 0 -13 8 -8 30 3 20 1 30 -6 30 -7 0 -17 -13 -22 -30 -6
-16 -14 -30 -18 -30 -3 0 -12 14 -19 30 -14 30 -23 36 -35 24z m-67 -49 c0 -8
-7 -15 -15 -15 -8 0 -15 7 -15 15 0 8 7 15 15 15 8 0 15 -7 15 -15z m-4 -46
c8 -14 -11 -33 -25 -25 -11 7 -4 36 9 36 5 0 12 -5 16 -11z m12 -131 c-2 -15
-11 -24 -25 -26 -19 -3 -23 1 -23 22 0 21 5 26 26 26 21 0 25 -4 22 -22z"/>
<path d="M850 7753 c0 -68 3 -84 12 -75 7 7 27 12 45 12 36 0 40 -10 23 -55
-8 -20 -7 -32 4 -46 8 -11 12 -29 9 -39 -4 -16 -9 -17 -24 -10 -20 11 -69 3
-69 -11 0 -5 26 -9 58 -9 31 -1 83 -3 115 -5 49 -4 57 -2 57 13 1 16 1 16 11
0 10 -18 44 -23 73 -12 14 5 16 29 16 165 l0 159 -165 0 -165 0 0 -87z m170
52 c15 -18 17 -15 -36 -42 l-41 -21 -1 26 c0 15 5 33 10 40 14 17 53 15 68 -3z
m30 -89 c0 -53 0 -54 -32 -59 -34 -5 -58 12 -58 40 0 10 5 10 26 1 30 -14 44
0 44 45 0 15 5 27 10 27 6 0 10 -24 10 -54z"/>
<path d="M1230 7676 l0 -164 163 1 162 2 -2 80 c-1 44 -2 117 -2 163 l-1 82
-160 0 -160 0 0 -164z m286 68 c18 -14 18 -14 -6 -3 -31 14 -36 19 -24 19 6 0
19 -7 30 -16z m-126 -4 c0 -5 -5 -10 -11 -10 -5 0 -7 5 -4 10 3 6 8 10 11 10
2 0 4 -4 4 -10z m-116 -125 c3 -9 0 -15 -9 -15 -16 0 -27 14 -18 24 10 10 21
7 27 -9z"/>
<path d="M614 7783 c-9 -33 5 -55 42 -68 16 -5 30 -10 32 -11 10 -5 -14 -34
-29 -34 -10 0 -19 -5 -19 -11 0 -5 4 -8 8 -5 18 11 34 -14 39 -58 5 -37 2 -47
-12 -52 -10 -4 -21 -1 -26 7 -7 11 -9 11 -9 -3 0 -27 -20 -22 -56 13 -30 29
-32 30 -27 9 4 -16 2 -21 -8 -18 -7 2 -16 15 -19 29 l-6 24 -8 -23 c-5 -15
-13 -21 -22 -18 -10 4 -14 -3 -14 -24 l0 -29 160 2 160 2 0 83 c0 79 -1 82
-23 82 -23 0 -28 8 -53 98 -2 6 -12 12 -23 12 -11 0 -23 5 -26 10 -3 6 -17 10
-30 10 -18 0 -26 -7 -31 -27z"/>
<path d="M868 7603 c-10 -2 -18 -13 -18 -23 0 -14 9 -19 41 -22 22 -2 42 -2
44 1 4 4 -43 53 -48 50 -1 -1 -10 -3 -19 -6z"/>
<path d="M737 6863 c-4 -3 -7 -181 -7 -395 l0 -388 395 0 395 0 0 395 0 395
-388 0 c-214 0 -392 -3 -395 -7z m671 -390 l2 -283 -285 0 -285 0 0 278 c0
153 3 282 7 285 4 4 131 6 282 5 l276 -3 3 -282z"/>
<path d="M960 6470 l0 -170 165 0 165 0 0 170 0 170 -165 0 -165 0 0 -170z"/>
<path d="M1640 6816 l0 -55 53 -3 52 -3 3 -57 3 -58 54 0 55 0 0 -55 0 -55
115 0 115 0 0 -55 0 -54 -112 -3 -113 -3 0 -55 0 -55 168 -3 167 -2 0 -55 0
-55 -55 0 -55 0 0 -55 0 -55 -60 0 -60 0 0 55 0 55 -55 0 -55 0 0 -55 0 -55
-55 0 -55 0 -2 168 -3 167 -52 3 -53 3 0 -170 0 -171 55 0 55 0 0 -115 0 -115
-55 0 -55 0 0 55 0 55 -400 0 -400 0 0 -55 0 -55 60 0 60 0 0 -115 0 -115 -60
0 -60 0 0 61 0 60 -52 -3 -53 -3 0 -55 0 -55 53 -3 52 -3 0 -55 0 -54 -55 0
-55 0 0 -170 0 -170 55 0 55 0 0 -55 0 -55 -55 0 -55 0 0 -115 0 -115 55 0 55
0 0 115 0 116 58 -3 57 -3 3 -112 3 -113 54 0 55 0 0 -55 0 -55 -55 0 -55 0 0
-55 0 -55 -60 0 -60 0 0 55 0 55 -55 0 -55 0 2 -282 3 -283 53 -3 52 -3 0 -55
0 -54 -55 0 -55 0 0 -55 0 -55 55 0 55 0 0 55 0 55 60 0 60 0 0 55 0 55 55 0
55 0 0 115 0 115 55 0 55 0 0 -225 0 -225 -110 0 -110 0 0 -55 0 -54 -112 -3
-113 -3 -3 -58 -3 -58 113 3 113 3 3 58 3 57 109 0 110 0 0 -60 0 -60 -55 0
-55 0 0 -55 0 -55 -167 -2 -168 -3 -3 -167 -2 -168 55 0 55 0 0 55 0 55 60 0
60 0 0 -110 0 -109 -112 -3 -113 -3 0 -55 0 -55 53 -3 52 -3 0 -109 0 -109
-52 -3 -53 -3 -3 -57 -3 -58 226 0 225 0 0 -55 0 -55 55 0 55 0 0 -55 0 -55
115 0 115 0 0 55 0 55 -115 0 -115 0 0 109 c0 122 -1 121 76 121 l44 0 0 -60
0 -60 55 0 55 0 0 60 0 60 60 0 60 0 0 -60 0 -60 55 0 55 0 0 -55 0 -55 -55 0
-55 0 0 -110 c0 -98 -2 -110 -17 -111 -10 -1 -25 -3 -33 -4 -8 -1 -52 -3 -97
-4 l-83 -1 0 -55 0 -55 115 0 115 0 0 -395 0 -395 55 0 55 0 0 55 0 55 55 0
55 0 0 -110 0 -110 54 0 55 0 3 52 3 53 55 0 55 0 3 -52 3 -53 55 0 54 0 0
170 0 170 55 0 54 0 3 -57 3 -58 58 -3 57 -3 0 -109 0 -110 55 0 55 0 0 55 0
55 55 0 55 0 0 55 0 55 -55 0 -55 0 0 60 0 60 -115 0 -115 0 0 55 0 55 60 0
60 0 0 55 0 55 55 0 55 0 0 115 0 115 -55 0 -55 0 0 55 0 55 110 0 110 0 0
-55 0 -55 61 0 c57 0 60 1 59 23 -1 12 -2 37 -1 55 l1 32 55 0 55 0 0 -55 0
-55 -54 0 c-37 0 -56 -4 -59 -14 -3 -8 -5 -59 -4 -113 l2 -98 58 -3 57 -3 0
-54 0 -55 -115 0 -115 0 0 -55 0 -54 113 -3 112 -3 0 -55 0 -55 -52 -3 c-58
-3 -68 -17 -61 -78 l3 -29 113 -3 112 -3 0 116 0 115 55 0 54 0 3 -57 3 -58
168 -3 167 -2 0 -55 0 -55 -110 0 -110 0 0 -55 0 -55 110 0 110 0 0 55 0 54
58 3 57 3 3 113 3 112 54 0 55 0 0 -60 0 -60 55 0 55 0 0 -55 0 -55 -55 0 -55
0 0 -55 0 -55 55 0 55 0 0 55 0 54 58 3 57 3 3 113 3 112 54 0 55 0 0 -115 0
-115 55 0 54 0 3 113 3 112 55 5 55 5 1 105 1 105 111 3 112 3 0 -56 0 -55
-55 0 -55 0 0 -55 0 -55 55 0 55 0 0 -60 0 -60 -55 0 -55 0 0 -55 0 -54 -57
-3 -58 -3 0 -50 0 -50 58 -3 57 -3 0 56 0 55 110 0 110 0 0 -55 0 -55 285 0
285 0 0 55 0 55 55 0 55 0 0 -55 0 -55 169 0 170 0 3 53 3 52 113 3 112 3 0
-56 0 -55 225 0 225 0 0 395 0 395 -55 0 -54 0 -3 -57 -3 -58 -57 -3 -58 -3 0
-54 0 -55 -55 0 -55 0 0 -170 0 -170 115 0 115 0 0 -55 0 -55 -170 0 -170 0 0
55 0 55 -55 0 -55 0 0 115 0 115 55 0 55 0 0 110 0 110 55 0 55 0 0 60 0 60
-55 0 -55 0 0 113 0 112 52 0 53 0 3 58 3 57 -56 0 -55 0 0 55 0 55 55 0 55 0
0 55 0 55 55 0 55 0 0 -165 c0 -125 3 -165 13 -167 6 0 28 -2 47 -3 19 -2 41
-3 48 -4 8 -1 12 -19 12 -57 l0 -55 53 3 52 3 3 168 2 167 -55 0 -55 0 0 55 0
55 55 0 56 0 -3 58 -3 57 -52 3 -53 3 0 55 0 54 55 0 55 0 0 280 0 280 -55 0
-55 0 0 60 0 60 55 0 55 0 0 225 0 225 -115 0 -115 0 0 55 0 55 -110 0 -110 0
0 115 0 115 55 0 55 0 0 -55 0 -54 113 -3 112 -3 3 -58 3 -58 52 3 52 3 3 113
3 112 -171 0 -170 0 0 55 0 54 113 3 112 3 0 55 0 55 -112 3 -113 3 0 -61 0
-60 -55 0 -55 0 0 -55 0 -55 -115 0 -115 0 0 55 0 54 58 3 57 3 3 58 3 57 54
0 55 0 0 55 0 55 55 0 55 0 0 55 0 55 55 0 55 0 0 -55 0 -55 115 0 115 0 0 55
0 55 -115 0 -115 0 0 60 0 60 115 0 115 0 0 55 0 55 -55 0 -55 0 0 55 0 55 55
0 55 0 0 115 0 115 -55 0 -55 0 0 55 0 55 55 0 55 0 0 225 0 225 -55 0 -55 0
0 -55 0 -55 -60 0 -60 0 0 -55 0 -55 -165 0 -165 0 0 55 0 55 55 0 55 0 0 55
0 55 -115 0 -115 0 0 -55 0 -55 -115 0 -115 0 0 -54 0 -55 -52 -3 -53 -3 -3
-112 -3 -113 -54 0 -55 0 0 -170 0 -169 -112 -3 -113 -3 -3 -52 -3 -53 -110 0
-109 0 0 110 0 110 168 2 167 3 0 55 0 55 -57 3 -58 3 0 109 0 109 113 3 112
3 3 58 3 57 -56 0 -55 0 0 55 0 55 110 0 110 0 0 115 0 115 55 0 55 0 0 55 0
55 -55 0 -55 0 0 -55 0 -55 -55 0 -55 0 0 110 0 110 -55 0 -55 0 0 -110 0
-110 -60 0 -60 0 2 168 3 167 58 3 58 3 -3 52 -3 52 -167 3 -168 2 0 55 0 55
-60 0 -60 0 0 60 0 60 -55 0 -55 0 0 55 0 55 -55 0 -55 0 0 -170 0 -170 55 0
55 0 0 -55 0 -55 -55 0 -54 0 -3 -57 -3 -58 -54 0 -54 0 2 141 c1 77 -1 152
-4 167 -7 25 -11 27 -61 27 l-54 0 0 60 0 59 57 3 c56 3 58 4 60 33 2 17 1 40
-2 53 -5 21 -10 23 -58 20 l-52 -3 -3 -52 -3 -53 -109 0 -109 0 -3 -57 -3 -58
-113 -3 -113 -3 3 58 3 58 53 3 52 3 0 55 0 54 -110 0 -110 0 0 -115 0 -115
55 0 55 0 0 -55 0 -55 -55 0 -55 0 0 -55 0 -55 -60 0 -60 0 0 55 0 55 -110 0
-110 0 0 -340 0 -340 -60 0 -60 0 0 225 0 225 -55 0 -55 0 0 60 0 60 -55 0
-55 0 0 55 0 55 110 0 110 0 0 55 0 55 -110 0 -110 0 0 -55 0 -55 -55 0 -55 0
-1 75 c0 41 -1 89 -1 105 0 17 1 35 1 40 1 6 26 10 57 10 l55 0 -3 53 -3 52
-110 0 -110 0 -3 -112 -3 -113 -54 0 -54 0 -3 58 -3 57 -52 3 -52 3 -3 52 -3
52 -55 0 -55 0 0 -110 0 -110 58 -3 57 -3 0 -54 0 -55 -170 0 -170 0 -2 168
-3 167 -222 3 -223 2 0 -54z m330 -116 l0 -60 -55 0 -55 0 0 53 c0 30 3 57 7
60 3 4 28 7 55 7 l48 0 0 -60z m680 -340 l0 -170 55 0 c30 0 56 -4 56 -10 1
-5 2 -17 2 -25 0 -78 2 -75 -58 -75 l-55 0 0 55 0 55 -55 0 -55 0 0 -115 0
-115 -55 0 -55 0 0 115 0 115 -60 0 -60 0 0 -55 0 -55 -55 0 -55 0 0 55 0 55
55 0 54 0 3 113 3 112 113 3 112 3 0 54 0 55 55 0 55 0 0 -170z m1360 55 l0
-114 112 -3 112 -3 1 -40 c2 -62 -2 -65 -61 -65 l-54 0 0 -55 0 -55 61 0 61 0
-2 43 c-3 69 -4 67 55 67 l55 0 0 -55 0 -55 55 0 55 0 0 55 0 55 55 0 55 0 0
-55 0 -55 -55 0 -55 0 0 -115 0 -115 115 0 115 0 0 55 0 55 55 0 55 0 0 -55 0
-55 -55 0 -55 0 0 -55 0 -55 55 0 55 0 0 -115 0 -115 -55 0 -55 0 0 115 0 116
-57 -3 -58 -3 -3 -57 -3 -58 -224 0 -225 0 0 -55 0 -55 55 0 55 0 0 -55 0 -55
-110 0 -110 0 0 -170 0 -170 55 0 55 0 0 110 0 110 55 0 c37 0 55 4 56 13 1 6
3 21 4 32 1 11 3 32 3 48 2 26 4 27 57 27 l55 0 0 55 0 55 55 0 55 0 0 -55 0
-54 113 -3 112 -3 3 -58 3 -58 -113 3 -113 3 -3 58 -3 57 -54 0 -55 0 0 -115
0 -115 110 0 110 0 0 -55 0 -55 -55 0 -55 0 0 -55 0 -55 48 -1 c26 -1 50 -1
55 0 4 0 7 -26 7 -59 l0 -61 58 3 57 3 5 55 5 55 108 3 107 3 0 55 0 55 58 -3
57 -3 3 -52 3 -53 -60 0 -61 0 0 -60 0 -60 170 0 170 0 0 60 0 60 -55 0 -55 0
0 55 0 55 110 0 110 0 0 109 0 110 -52 3 -53 3 -3 58 -3 57 56 0 55 0 0 -60 0
-60 115 0 115 0 0 60 0 60 -55 0 -55 0 0 110 0 109 -57 3 -58 3 -3 58 -3 57
116 0 115 0 0 -115 0 -115 115 0 115 0 0 55 0 55 170 0 170 0 0 -55 0 -55 -60
0 -60 0 0 -55 0 -55 60 0 61 0 -3 -57 -3 -58 -55 0 -55 0 -3 58 -3 57 -54 0
-54 0 -3 -57 -3 -58 -52 -3 -53 -3 0 -55 0 -54 55 0 55 0 0 -55 0 -55 55 0 55
0 0 -55 0 -55 -55 0 -55 0 0 55 0 55 -55 0 -55 0 0 -115 0 -115 -55 0 -55 0 0
54 c0 61 -6 66 -76 66 l-44 0 0 110 0 110 -55 0 -55 0 0 -55 0 -55 -60 0 -60
0 0 -55 0 -54 58 -3 57 -3 0 -55 0 -55 -57 -3 -58 -3 0 -54 0 -55 60 0 61 0
-3 -112 -3 -113 -57 -3 -58 -3 0 -54 0 -55 -55 0 -55 0 0 -170 0 -170 -55 0
-55 0 0 -55 0 -55 -55 0 -55 0 0 110 0 109 -57 3 -58 3 -3 113 -3 112 -54 0
-55 0 0 -115 0 -115 -55 0 -55 0 0 -110 0 -110 110 0 110 0 0 -115 0 -115
-110 0 -110 0 0 -170 0 -170 55 0 55 0 0 -55 0 -55 55 0 55 0 0 109 0 110 -52
3 -53 3 0 55 0 55 113 3 112 3 0 54 0 55 55 0 55 0 0 60 0 60 55 0 55 0 0 -60
0 -60 55 0 55 0 0 -55 0 -55 -55 0 -56 0 3 -57 3 -58 53 -3 52 -3 0 -55 0 -54
115 0 115 0 0 54 0 55 -52 3 -53 3 -3 173 -2 172 54 0 55 0 3 -57 3 -58 55 0
55 0 3 58 3 57 164 0 164 0 3 53 3 52 55 0 55 0 3 -52 3 -53 -61 0 -61 0 3
-57 3 -58 58 -3 57 -3 0 -54 0 -54 -57 -3 -58 -3 0 -55 0 -55 58 -3 57 -3 -2
-222 -3 -222 -55 -1 -55 -1 -3 -111 -3 -112 -109 0 -110 0 0 55 0 55 55 0 55
0 0 55 0 55 55 0 55 0 0 115 0 115 -55 0 -55 0 0 -55 0 -55 -55 0 -54 0 -3
-57 -3 -58 -52 -3 -53 -3 0 -170 0 -169 55 0 55 0 0 -55 0 -55 -55 0 -55 0 0
55 0 54 -57 3 -58 3 -5 55 -5 55 -52 3 -53 3 0 55 0 54 55 0 55 0 0 54 0 55
-52 3 -53 3 -3 58 -3 57 -59 0 -60 0 0 110 0 110 -110 0 -110 0 0 -55 0 -55
-55 0 -55 0 0 -55 0 -55 110 0 110 0 0 -60 0 -60 55 0 55 0 0 -110 0 -110
-110 0 -110 0 0 -60 0 -60 55 0 55 0 0 -55 0 -55 -55 0 -55 0 0 -55 0 -55 225
0 226 0 -3 -57 -3 -58 -205 -2 c-113 -1 -213 -2 -222 -3 -15 0 -18 -9 -18 -55
l0 -55 55 0 55 0 0 -115 0 -115 -110 0 -109 0 -3 58 -3 57 -112 3 -113 3 0 54
0 54 113 3 112 3 3 52 3 52 -58 3 -58 3 -3 113 -3 112 -169 0 -170 0 0 -55 0
-55 115 0 115 0 0 -54 c0 -60 -6 -66 -71 -66 l-39 0 -2 -168 -3 -167 -167 -3
-168 -2 0 170 c0 129 -3 170 -12 171 -7 1 -25 0 -40 -1 -50 -3 -65 7 -60 40 2
16 1 41 -2 55 -6 23 -11 25 -61 25 l-54 0 -3 -57 c-2 -37 -7 -58 -15 -59 -7
-1 -31 -2 -53 -3 l-40 -1 0 -55 0 -55 55 0 55 0 0 -55 0 -55 -55 0 -55 0 0
-60 0 -60 55 0 55 0 0 -55 0 -55 -55 0 -55 0 0 -55 0 -55 -55 0 -55 0 0 -55 0
-55 -115 0 -115 0 0 55 0 55 115 0 115 0 0 55 0 55 -60 0 -60 0 0 115 0 115
115 0 115 0 0 55 0 54 -112 3 -113 3 -3 113 -3 113 58 -3 58 -3 3 -55 3 -55
47 2 c26 1 50 2 55 2 4 1 7 26 7 56 l0 55 55 0 55 0 0 55 0 55 55 0 c50 0 55
2 61 25 3 14 4 39 0 55 l-5 30 60 0 60 0 -3 58 -3 57 -55 5 c-55 5 -55 5 -54
38 3 79 -8 72 114 72 l110 0 0 55 0 55 55 0 55 0 0 115 0 115 -166 2 -165 3
-2 108 -2 107 58 0 57 0 0 115 0 116 -57 -3 -58 -3 -1 -35 c-2 -73 1 -70 -59
-70 l-55 0 0 115 0 115 -55 0 -55 0 0 -60 0 -60 -54 0 -55 0 -3 -52 -3 -53
-112 -3 -113 -3 0 56 0 55 -115 0 -115 0 0 -55 0 -54 58 -3 57 -3 3 -57 3 -58
169 0 170 0 0 -55 0 -55 55 0 55 0 0 -55 0 -55 55 0 55 0 0 -115 0 -115 59 0
58 0 1 48 c0 26 0 53 1 60 1 9 16 12 54 10 l52 -3 0 -55 0 -55 -55 -5 c-54 -5
-55 -6 -56 -37 -3 -78 1 -73 -59 -73 l-55 0 0 54 0 55 -52 3 -53 3 -3 113 -3
112 -54 0 -55 0 0 -55 0 -55 -60 0 -61 0 3 -57 3 -58 58 -3 57 -3 0 -54 0 -55
55 0 55 0 0 -115 0 -115 -55 0 -55 0 0 115 0 115 -60 0 -60 0 0 -115 0 -115
-110 0 -110 0 0 -55 0 -55 55 0 55 0 0 -55 0 -55 -55 0 -55 0 0 -54 c0 -53 0
-54 -32 -57 -18 -2 -45 -3 -60 -1 -27 3 -28 6 -28 58 l0 54 -55 0 -55 0 0 -55
c0 -37 -4 -55 -12 -56 -7 0 -31 -1 -53 -2 l-40 -2 -5 -170 -5 -170 -167 -3
-168 -2 0 60 0 60 110 0 110 0 0 55 0 55 -55 0 -55 0 0 115 0 115 -170 0 -170
0 0 -54 0 -55 -46 -7 c-25 -3 -75 -4 -110 -1 l-64 5 0 -59 0 -59 -60 0 -60 0
0 -55 0 -55 60 0 60 0 0 -115 0 -115 -60 0 -60 0 0 -55 0 -55 -55 0 -55 0 0
-55 0 -55 -55 0 -54 0 -3 -57 -3 -58 -113 -3 -113 -3 3 58 3 58 113 3 113 3
-3 52 -3 52 -112 3 -113 3 0 54 0 55 -55 0 -55 0 0 55 0 55 55 0 55 0 0 115 0
115 55 0 55 0 0 55 c0 58 -9 66 -65 63 -46 -2 -45 -6 -45 167 l0 165 -55 0
-54 0 -3 58 -3 57 -52 3 -53 3 0 110 0 109 -115 0 -115 0 0 -55 0 -55 55 0 55
0 0 -55 0 -55 -55 0 -55 0 0 55 0 55 -115 0 -115 0 0 115 0 115 -55 0 -54 0
-3 -57 -3 -58 -52 -3 -53 -3 0 60 0 61 55 0 55 0 0 110 0 110 -55 0 -55 0 0
55 0 55 55 0 55 0 0 60 0 60 55 0 54 0 3 -57 3 -58 53 -3 52 -3 0 -55 0 -54
-55 0 -55 0 0 -55 0 -55 115 0 115 0 0 55 0 54 113 3 112 3 3 53 3 52 165 0
164 0 0 -55 0 -56 58 3 57 3 3 53 3 52 55 0 54 0 0 -110 0 -110 115 0 115 0 0
55 0 54 -57 3 -58 3 -3 167 -2 168 -168 2 -167 3 -3 168 -2 167 -110 0 -110 0
0 55 0 55 110 0 110 0 0 60 0 60 -55 0 -55 0 0 55 0 55 55 0 55 0 0 170 0 170
-55 0 -55 0 0 -55 0 -55 -55 0 -54 0 -3 -57 -3 -58 -52 -3 -53 -3 0 -55 0 -54
-115 0 -115 0 0 55 0 55 115 0 115 0 0 60 0 60 -175 0 -175 0 0 -61 0 -60 -52
3 -53 3 -3 58 -3 57 56 0 55 0 0 55 0 55 -55 0 -55 0 0 55 0 55 -55 0 -55 0 0
115 0 115 55 0 55 0 0 55 0 55 -110 0 -110 0 0 55 0 54 -57 3 -58 3 -3 112 -3
112 58 3 58 3 3 53 3 52 55 0 54 0 0 115 0 115 55 0 55 0 0 -115 0 -115 55 0
55 0 0 -55 0 -55 60 0 60 0 0 55 0 55 115 0 115 0 0 60 0 60 -115 0 -115 0 0
55 0 55 115 0 115 0 0 -54 0 -55 53 -3 52 -3 0 -55 0 -55 -52 -3 -53 -3 -2
-167 -3 -167 -227 -3 -228 -2 0 -55 0 -55 55 0 54 0 3 -111 3 -110 158 0 c86
0 164 1 172 1 11 0 15 13 15 55 l0 55 -115 0 -115 0 0 55 0 55 115 0 115 0 0
-55 0 -55 55 0 55 0 0 55 0 55 110 0 110 0 0 54 0 55 -52 3 -53 3 -3 58 -3 57
-54 0 -55 0 0 55 0 55 55 0 55 0 0 55 0 55 55 0 55 0 0 115 0 115 -55 0 -55 0
0 115 0 115 55 0 55 0 0 -115 0 -115 60 0 60 0 0 55 0 55 110 0 110 0 0 -55 0
-55 60 0 60 0 0 -55 0 -54 -57 -3 -58 -3 -3 -167 -2 -168 115 0 115 0 0 55 0
55 55 0 54 0 3 113 3 112 168 3 167 2 0 55 0 55 55 0 55 0 0 -55 0 -55 -55 0
-55 0 0 -60 0 -60 168 2 167 3 3 58 3 57 54 0 54 0 3 -57 3 -58 113 -3 112 -3
0 -54 0 -55 55 0 55 0 0 115 0 115 -110 0 -110 0 0 55 0 55 110 0 110 0 0 55
0 55 60 0 60 0 0 60 0 60 -60 0 -60 0 0 110 0 110 60 0 61 0 -3 58 -3 57 -57
3 -58 3 0 54 0 55 115 0 115 0 0 -115z m-1130 -55 l0 -60 55 0 55 0 0 -170 0
-170 -55 0 -55 0 0 -55 0 -55 -55 0 -55 0 0 55 0 55 55 0 55 0 0 170 0 170
-55 0 -55 0 0 60 0 60 55 0 55 0 0 -60z m1805 0 l0 -55 -110 0 -110 0 -3 58
-3 58 113 -3 113 -3 0 -55z m-1015 -230 l0 -170 -170 0 -170 0 0 170 0 170
170 0 170 0 0 -170z m1130 5 l0 -55 -55 0 -55 0 0 55 0 55 55 0 55 0 0 -55z
m230 -230 l0 -56 -57 3 -58 3 -3 53 -3 52 60 0 61 0 0 -55z m-3960 -1410 l0
-115 -55 0 -55 0 0 -115 0 -115 -60 0 -60 0 0 170 0 169 58 3 57 3 3 58 3 57
54 0 55 0 0 -115z m568 -397 l2 -168 -175 0 -175 0 0 163 c0 90 3 167 7 171 4
3 81 5 172 4 l166 -3 3 -167z m4070 0 l2 -168 -175 0 -175 0 0 163 c0 90 3
167 7 171 4 3 81 5 172 4 l166 -3 3 -167z m-3848 -223 l0 -55 -55 0 -55 0 0
55 0 55 55 0 55 0 0 -55z m-340 -115 l0 -60 -55 0 -55 0 0 -55 0 -55 55 0 55
0 0 -60 0 -60 -55 0 -55 0 0 60 0 59 -57 3 -58 3 0 50 0 50 58 3 57 3 0 59 0
60 55 0 55 0 0 -60z m230 -115 l0 -55 -55 0 -55 0 0 55 0 55 55 0 55 0 0 -55z
m-680 -790 l0 -55 -55 0 -55 0 0 55 0 55 55 0 55 0 0 -55z m5090 -115 l0 -60
-60 0 -60 0 0 53 c0 30 3 57 7 60 3 4 30 7 60 7 l53 0 0 -60z m-342 -337 c-3
-56 -4 -58 -32 -61 -15 -2 -39 -1 -52 2 -22 6 -24 12 -24 61 l0 55 55 0 56 0
-3 -57z m-2148 -343 l0 -170 -170 0 -170 0 0 170 0 170 170 0 170 0 0 -170z
m2035 0 l0 -165 -172 -3 -173 -2 0 170 0 170 173 -2 172 -3 0 -165z m-795
-115 l0 -55 -55 0 -55 0 0 -55 0 -55 -55 0 -55 0 0 -55 0 -55 -115 0 -115 0 0
55 0 55 55 0 55 0 0 55 0 55 115 0 115 0 0 55 0 55 55 0 55 0 0 -55z m-1810
-110 l0 -55 -55 0 -55 0 0 55 0 55 55 0 55 0 0 -55z m3060 0 l0 -55 -60 0 -60
0 0 55 0 55 60 0 60 0 0 -55z m-2720 -110 l0 -55 -110 0 -110 0 0 55 0 55 110
0 110 0 0 -55z m1700 0 l0 -55 55 0 55 0 0 55 0 55 55 0 55 0 0 -55 0 -54 58
-3 57 -3 0 -55 0 -55 -55 0 -55 0 -3 58 -3 57 -54 0 -55 0 0 -60 0 -60 -55 0
-55 0 0 -55 0 -55 -55 0 -55 0 0 55 0 55 55 0 55 0 0 60 0 60 -55 0 -55 0 0
55 0 55 55 0 55 0 0 -55z m-230 -116 l0 -60 -52 3 -53 3 -3 44 c-5 65 0 71 58
71 l50 0 0 -61z m-220 -114 l0 -55 -60 0 -60 0 0 55 0 55 60 0 60 0 0 -55z"/>
<path d="M2430 6245 l0 -55 55 0 55 0 0 55 0 55 -55 0 -55 0 0 -55z"/>
<path d="M3900 6190 l0 -110 55 0 55 0 0 -60 0 -60 -55 0 -55 0 0 -55 0 -55
-60 0 -60 0 0 -55 0 -55 60 0 61 0 -3 -112 -3 -113 -57 -3 -58 -3 0 -54 0 -55
-110 0 -110 0 0 55 0 55 -170 0 -171 0 3 -112 3 -113 53 -3 52 -3 0 -55 0 -54
-55 0 -55 0 0 -170 0 -170 -60 0 -60 0 0 170 0 170 -55 0 -55 0 0 55 0 55 -55
0 -55 0 0 -110 0 -110 -55 0 -55 0 -1 33 c-1 17 -2 37 -4 42 -1 6 -3 16 -3 23
-1 8 -20 12 -57 12 l-55 0 0 55 0 55 54 0 c34 0 56 5 58 13 3 6 5 57 4 112
l-1 100 -57 3 -58 3 0 -56 0 -55 -55 0 -55 0 0 -115 0 -115 -55 0 -55 0 0 -55
0 -55 -60 0 -60 0 0 55 0 55 -55 0 -55 0 0 55 0 55 -55 0 -55 0 0 60 0 60 55
0 55 0 0 55 0 55 -170 0 -170 0 0 -55 0 -55 55 0 55 0 0 -60 0 -60 60 0 60 0
0 -110 0 -110 55 0 55 0 0 -54 0 -55 -52 -3 -53 -3 -3 -57 -3 -58 -59 0 -60 0
0 -55 0 -55 60 0 60 0 0 -115 0 -115 110 0 110 0 0 -55 0 -55 60 0 60 0 0 -55
0 -54 -57 -3 -58 -3 -3 -57 -3 -58 -54 0 -54 0 -3 58 -3 57 -52 3 -52 3 -3
-58 -3 -58 -57 -3 -58 -3 0 -54 0 -55 60 0 60 0 0 -110 0 -110 55 0 55 0 0
110 0 110 55 0 55 0 0 -55 0 -55 115 0 115 0 0 -115 0 -115 55 0 55 0 0 225 0
226 58 -3 57 -3 0 -50 0 -50 58 -3 57 -3 0 -54 0 -54 -57 -3 -58 -3 0 -110 0
-110 58 -3 57 -3 0 -54 0 -54 -112 -3 -113 -3 -3 -57 -3 -58 -54 0 -55 0 0
-110 0 -110 -55 0 -55 0 0 -55 0 -54 -57 -3 -58 -3 -3 -57 -3 -58 -54 0 -55 0
0 -55 0 -55 -55 0 -55 0 0 115 0 115 55 0 55 0 0 55 0 55 -115 0 -115 0 0 55
0 55 -55 0 -55 0 0 -55 0 -55 -110 0 -110 0 0 -55 0 -55 110 0 110 0 0 -60 0
-60 -55 0 -55 0 0 -55 0 -55 55 0 55 0 0 -55 0 -55 55 0 55 0 0 55 0 55 60 0
60 0 0 -115 0 -115 55 0 55 0 0 -55 0 -55 -115 0 -115 0 0 -55 0 -55 115 0
114 0 3 -57 3 -58 50 0 50 0 5 55 5 55 113 3 112 3 0 54 0 55 -115 0 -116 0 3
113 3 112 55 0 55 0 3 -57 3 -58 54 0 54 0 3 58 3 57 53 3 52 3 0 55 0 54
-170 0 -170 0 0 55 0 54 58 3 57 3 3 58 3 57 54 0 54 0 3 -57 3 -58 50 0 50 0
3 58 3 57 57 0 58 0 2 55 2 55 -60 0 -60 0 0 110 0 110 58 0 57 0 0 -107 0
-108 57 -3 57 -3 3 -112 3 -112 53 -3 52 -3 0 -55 0 -54 115 0 115 0 0 -170 0
-170 -60 0 -61 0 3 -113 3 -112 55 0 55 0 3 58 3 57 54 0 55 0 2 168 3 167
168 3 167 2 0 55 0 55 -55 0 -54 0 -3 113 -3 112 -55 0 -55 0 -5 -55 -5 -55
-50 0 -50 0 -3 168 -2 167 -115 0 -115 0 0 -55 0 -55 60 0 60 0 0 -55 0 -54
-57 -3 -58 -3 -3 -57 -3 -58 -54 0 -55 0 0 115 0 115 -55 0 -55 0 0 109 0 110
53 3 52 3 3 113 3 112 -56 0 -55 0 0 115 0 115 55 0 55 0 0 -55 0 -55 55 0 54
0 3 -112 3 -113 58 -3 57 -3 0 -59 0 -60 110 0 110 0 0 60 0 60 -110 0 -110 0
0 115 0 115 55 0 55 0 0 -60 0 -60 55 0 54 0 3 58 3 57 168 3 167 2 0 -60 0
-60 60 0 61 0 -3 113 -3 112 -57 3 -58 3 0 54 0 54 58 3 57 3 3 52 3 52 -58 3
-58 3 -3 113 -3 112 116 0 115 0 0 -115 0 -115 55 0 55 0 0 -55 0 -55 -55 0
-55 0 0 -55 0 -56 113 3 112 3 1 40 c1 22 2 46 3 53 1 8 19 12 56 12 l55 0 0
-55 0 -54 -57 -3 -58 -3 0 -52 0 -53 58 0 57 0 0 -60 0 -60 55 0 55 0 0 60 0
60 55 0 55 0 0 55 0 55 -55 0 -55 0 0 55 0 55 -55 0 -55 0 0 55 0 55 110 0
110 0 0 60 0 60 61 0 60 0 -3 53 -3 52 -57 3 -58 3 0 -56 0 -55 -110 0 -110 0
0 -60 0 -60 -55 0 c-30 0 -56 3 -56 8 -1 4 -2 30 -3 57 l-1 50 -57 3 -58 3 0
54 0 55 115 0 115 0 0 55 0 55 -170 0 -170 0 0 60 0 60 55 0 55 0 0 55 0 55
55 0 c30 0 55 3 56 8 1 4 2 27 3 52 l2 45 54 5 55 5 3 113 3 113 -58 -3 -58
-3 -2 -95 c-1 -52 -2 -103 -2 -112 -1 -15 -10 -18 -56 -18 l-54 0 -3 58 -3 57
-52 3 -53 3 0 55 0 54 -55 0 -55 0 0 110 0 110 -60 0 -60 0 0 60 0 60 115 0
115 0 0 110 0 110 55 0 54 0 3 58 3 57 113 3 112 3 0 54 0 55 -115 0 -115 0 0
115 0 115 -55 0 -55 0 0 110 0 110 -55 0 -55 0 0 -110z m110 -395 l0 -55 -55
0 -55 0 0 55 0 55 55 0 55 0 0 -55z m-450 -455 l0 -60 110 0 110 0 0 -55 0
-55 -55 0 -55 0 0 -55 0 -55 115 0 115 0 0 -55 0 -55 -115 0 -115 0 0 -60 0
-60 55 0 55 0 0 -55 0 -55 60 0 60 0 0 55 0 55 110 0 110 0 0 -55 0 -55 -110
0 -109 0 -3 -112 -3 -113 -55 0 -55 0 -3 58 -3 57 -109 0 -110 0 0 -115 0
-115 -115 0 -115 0 0 55 0 55 -55 0 -55 0 0 -110 0 -110 -170 0 -169 0 -3 -57
-3 -58 -55 -3 -55 -3 1 53 c1 29 3 56 3 61 1 4 26 7 56 7 l55 0 0 55 0 56 -57
-3 -58 -3 -1 -40 c-1 -22 -2 -46 -3 -52 -1 -10 -30 -13 -111 -13 l-110 0 0 55
0 55 -55 0 -55 0 0 55 0 55 55 0 55 0 0 60 0 60 -55 0 -55 0 0 55 0 55 55 0
55 0 0 170 0 170 55 0 55 0 0 -55 0 -55 115 0 115 0 0 55 0 55 55 0 55 0 0
-115 0 -115 55 0 55 0 0 -55 0 -55 115 0 115 0 0 170 0 170 55 0 55 0 0 -225
0 -225 60 0 60 0 2 168 3 167 53 3 52 3 0 55 0 54 -55 0 -55 0 0 55 0 54 -57
3 -58 3 -3 99 c-1 55 0 106 2 113 4 9 24 13 61 13 l55 0 0 -60z m-1135 -450
l0 -55 -55 0 -55 0 -3 44 c-5 67 0 72 60 69 l53 -3 0 -55z m-225 -115 l0 -55
-55 0 -55 0 0 55 0 55 55 0 55 0 0 -55z m1468 -677 l2 -168 -170 0 -170 0 0
163 c0 90 3 167 7 171 4 3 79 5 167 4 l161 -3 3 -167z m-1128 -3 l0 -55 -115
0 -115 0 0 55 0 55 115 0 115 0 0 -55z m1920 -220 l0 -55 -55 0 -55 0 0 55 0
55 55 0 55 0 0 -55z m-1810 -680 l0 -55 -55 0 -55 0 0 55 0 55 55 0 55 0 0
-55z m-680 -230 l0 -55 -55 0 -55 0 0 55 0 55 55 0 55 0 0 -55z m340 -110 l0
-55 -55 0 -55 0 0 55 0 55 55 0 55 0 0 -55z"/>
<path d="M2650 4660 l0 -170 -55 0 -55 0 0 -55 0 -55 115 0 115 0 -2 223 -3
222 -57 3 -58 3 0 -171z"/>
<path d="M2880 4665 l0 -55 55 0 55 0 0 55 0 55 -55 0 -55 0 0 -55z"/>
<path d="M3330 4550 l0 -60 55 0 55 0 0 60 0 60 -55 0 -55 0 0 -60z"/>
<path d="M2880 4435 l0 -55 55 0 55 0 0 55 0 55 -55 0 -55 0 0 -55z"/>
<path d="M3442 4098 l3 -53 55 0 55 0 3 53 3 52 -61 0 -61 0 3 -52z"/>
<path d="M4239 6078 c-6 -18 -9 -76 -5 -94 6 -22 12 -24 61 -24 l55 0 0 60 0
60 -55 0 c-30 0 -55 -1 -56 -2z"/>
<path d="M2090 5795 l0 -55 55 0 55 0 0 55 0 55 -55 0 -55 0 0 -55z"/>
<path d="M1070 5510 l0 -110 -55 0 -55 0 0 -61 0 -60 53 3 52 3 3 58 3 57 109
0 110 0 0 55 0 55 -55 0 -55 0 0 55 0 55 -55 0 -55 0 0 -110z"/>
<path d="M2880 5565 l0 -55 55 0 55 0 0 55 0 55 -55 0 -55 0 0 -55z"/>
<path d="M1410 5455 l0 -55 55 0 55 0 0 55 0 55 -55 0 -55 0 0 -55z"/>
<path d="M5820 5455 l0 -55 -55 0 -55 0 0 -60 0 -60 -60 0 -60 0 0 -55 0 -55
60 0 60 0 0 -55 0 -55 55 0 55 0 0 55 0 55 -55 0 -55 0 0 55 0 55 55 0 55 0 0
60 0 60 55 0 55 0 0 55 0 55 -55 0 -55 0 0 -55z"/>
<path d="M1860 5005 l0 -55 55 0 55 0 0 55 0 55 -55 0 -55 0 0 -55z"/>
<path d="M1187 4943 c-4 -3 -7 -30 -7 -60 l0 -53 55 0 55 0 0 -55 0 -55 115 0
115 0 0 55 0 55 -115 0 -115 0 0 60 0 60 -48 0 c-27 0 -52 -3 -55 -7z"/>
<path d="M1640 4720 l0 -110 55 0 55 0 0 110 0 110 -55 0 -55 0 0 -110z"/>
<path d="M4460 4775 l0 -55 -115 0 -115 0 3 -55 2 -55 228 0 227 0 0 -60 0
-60 223 2 222 3 3 58 3 57 54 0 55 0 0 55 0 55 -170 0 -170 0 0 55 0 55 -55 0
-55 0 0 -55 0 -55 55 0 55 0 0 -55 0 -55 -110 0 -110 0 0 55 0 55 -60 0 -60 0
0 55 0 55 -55 0 -55 0 0 -55z"/>
<path d="M5030 4325 l0 -55 55 0 55 0 0 55 0 55 -55 0 -55 0 0 -55z"/>
<path d="M2317 3814 c-4 -4 -7 -32 -7 -61 l0 -54 58 3 57 3 0 55 0 55 -50 3
c-28 2 -54 0 -58 -4z"/>
<path d="M5140 3645 l0 -55 55 0 55 0 0 55 0 55 -55 0 -55 0 0 -55z"/>
<path d="M5597 3583 c-4 -3 -7 -30 -7 -60 l0 -53 61 0 60 0 -3 -52 -3 -53 -57
-3 -58 -3 0 -54 0 -55 -55 0 -55 0 0 -55 0 -55 55 0 55 0 0 -60 0 -61 58 3 57
3 3 113 3 112 109 0 110 0 0 170 0 170 -163 0 c-90 0 -167 -3 -170 -7z"/>
<path d="M4350 3415 l0 -55 55 0 55 0 0 55 0 55 -55 0 -55 0 0 -55z"/>
<path d="M5030 3415 l0 -55 55 0 55 0 0 55 0 55 -55 0 -55 0 0 -55z"/>
<path d="M3670 3250 l0 -110 55 0 55 0 0 55 0 55 60 0 60 0 0 55 0 55 -115 0
-115 0 0 -110z"/>
<path d="M1410 3195 l0 -55 55 0 55 0 0 55 0 55 -55 0 -55 0 0 -55z"/>
<path d="M4690 3195 l0 -55 55 0 55 0 0 55 0 55 -55 0 -55 0 0 -55z"/>
<path d="M4914 3127 c-2 -7 -3 -58 -2 -113 l3 -99 55 -5 55 -5 3 -52 3 -53 55
0 54 0 0 55 0 55 55 0 55 0 0 55 0 55 -110 0 -110 0 0 60 0 60 -55 0 c-37 0
-57 -4 -61 -13z"/>
<path d="M4570 2965 l0 -55 -55 0 -55 0 0 -55 0 -55 55 0 55 0 0 -60 0 -60
170 0 170 0 0 -55 0 -55 60 0 60 0 0 55 0 55 -60 0 -59 0 -3 58 -3 57 -167 3
-168 2 0 55 0 55 115 0 115 0 0 55 0 55 -115 0 -115 0 0 -55z"/>
<path d="M2885 2788 c-2 -7 -6 -33 -7 -58 l-3 -45 -57 -3 -58 -3 0 -39 c0 -70
0 -70 121 -70 l109 0 0 55 0 55 55 0 55 0 0 60 0 60 -105 0 c-76 0 -107 -4
-110 -12z"/>
<path d="M4350 2515 l0 -55 55 0 54 0 3 -57 3 -58 53 -1 52 -1 0 58 0 59 -55
0 -55 0 0 55 0 55 -55 0 -55 0 0 -55z"/>
<path d="M1970 2115 l0 -115 -55 0 -55 0 0 -55 0 -55 55 0 55 0 0 55 0 55 115
0 115 0 0 -55 0 -55 55 0 55 0 0 55 0 55 -55 0 -55 0 0 60 0 60 -55 0 -55 0 0
55 0 55 -60 0 -60 0 0 -115z"/>
<path d="M4460 2175 l0 -55 55 0 55 0 0 55 0 55 -55 0 -55 0 0 -55z"/>
<path d="M3900 1945 l0 -55 55 0 55 0 0 55 0 55 -55 0 -55 0 0 -55z"/>
<path d="M3447 6183 c-4 -3 -7 -28 -7 -55 l0 -48 60 0 60 0 0 55 0 55 -53 0
c-30 0 -57 -3 -60 -7z"/>
<path d="M1410 4095 l0 -55 55 0 55 0 0 55 0 55 -55 0 -55 0 0 -55z"/>
<path d="M5480 4095 l0 -55 55 0 55 0 0 55 0 55 -55 0 -55 0 0 -55z"/>
<path d="M3444 2107 c-3 -8 -4 -34 -2 -58 l3 -44 55 0 55 0 0 55 0 55 -53 3
c-38 2 -54 -1 -58 -11z"/>
<path d="M5480 2060 l0 -60 55 0 55 0 0 60 0 60 -55 0 -55 0 0 -60z"/>
<path d="M2990 6815 l0 -55 55 0 55 0 0 55 0 55 -55 0 -55 0 0 -55z"/>
<path d="M4690 6816 l0 -55 53 -3 52 -3 3 -57 3 -58 54 0 54 0 3 58 3 57 58 3
57 3 0 -61 0 -60 55 0 55 0 0 -110 0 -110 55 0 55 0 0 55 0 55 55 0 55 0 0
171 0 170 -52 -3 -53 -3 -3 -52 -3 -53 -109 0 -109 0 -3 53 -3 52 -167 3 -168
2 0 -54z"/>
<path d="M5480 6475 l0 -395 395 0 395 0 -2 393 -3 392 -392 3 -393 2 0 -395z
m678 -2 l2 -283 -285 0 -285 0 0 278 c0 153 3 282 7 285 4 4 131 6 282 5 l276
-3 3 -282z"/>
<path d="M5710 6470 l0 -170 165 0 165 0 0 170 0 170 -165 0 -165 0 0 -170z"/>
<path d="M3220 6700 l0 -60 110 0 110 0 0 60 0 60 -110 0 -110 0 0 -60z"/>
<path d="M840 2461 c0 -121 0 -121 -78 -121 l-33 0 3 -52 3 -53 168 -3 167 -2
0 55 0 55 33 0 c69 0 77 7 77 66 l0 54 -110 0 -110 0 0 55 0 55 -60 0 -60 0 0
-109z"/>
<path d="M730 1725 l0 -395 395 0 395 0 0 395 0 395 -395 0 -395 0 0 -395z
m680 -5 l0 -280 -285 0 -285 0 0 280 0 280 285 0 285 0 0 -280z"/>
<path d="M960 1720 l0 -170 165 0 165 0 0 170 0 170 -165 0 -165 0 0 -170z"/>
</g>
</svg>
